{
  "accessors": [
    {
      "bufferView": 2,
      "componentType": 5126,
      "count": 558,
      "max": [2.0288560390472412, 1.5601329803466797, -0.010742000304162502],
      "min": [-2.0288550853729248, -2.0730431079864502, -0.34136199951171875],
      "type": "VEC3"
    },
    {
      "bufferView": 2,
      "byteOffset": 6696,
      "componentType": 5126,
      "count": 558,
      "max": [1, 1, 1],
      "min": [-1, -1, -1],
      "type": "VEC3"
    },
    {
      "bufferView": 1,
      "componentType": 5126,
      "count": 558,
      "max": [0.99157500267028809, 0.89044898748397827],
      "min": [0.0048619997687637806, 0.0048589999787509441],
      "type": "VEC2"
    },
    {
      "bufferView": 0,
      "componentType": 5125,
      "count": 1656,
      "max": [557],
      "min": [0],
      "type": "SCALAR"
    },
    {
      "bufferView": 2,
      "byteOffset": 13392,
      "componentType": 5126,
      "count": 9713,
      "max": [2.5885219573974609, 2.0165491104125977, 1.0205700397491455],
      "min": [-2.5885219573974609, -2.4641900062561035, -0.37460699677467346],
      "type": "VEC3"
    },
    {
      "bufferView": 2,
      "byteOffset": 129948,
      "componentType": 5126,
      "count": 9713,
      "max": [1, 1, 1],
      "min": [-1, -1, -1],
      "type": "VEC3"
    },
    {
      "bufferView": 1,
      "byteOffset": 4464,
      "componentType": 5126,
      "count": 9713,
      "max": [0.99513798952102661, 0.99156302213668823],
      "min": [0.0048619997687637806, 0.0048580002039670944],
      "type": "VEC2"
    },
    {
      "bufferView": 0,
      "byteOffset": 6624,
      "componentType": 5125,
      "count": 31932,
      "max": [9712],
      "min": [0],
      "type": "SCALAR"
    },
    {
      "bufferView": 2,
      "byteOffset": 246504,
      "componentType": 5126,
      "count": 5825,
      "max": [2.5885219573974609, 2.0163030624389648, 0.91713297367095947],
      "min": [-2.5885219573974609, -2.4086740016937256, -0.36092999577522278],
      "type": "VEC3"
    },
    {
      "bufferView": 2,
      "byteOffset": 316404,
      "componentType": 5126,
      "count": 5825,
      "max": [1, 1, 1],
      "min": [-1, -1, -1],
      "type": "VEC3"
    },
    {
      "bufferView": 1,
      "byteOffset": 82168,
      "componentType": 5126,
      "count": 5825,
      "max": [0.98537802696228027, 0.98341900110244751],
      "min": [0.0048650000244379044, 0.0048580002039670944],
      "type": "VEC2"
    },
    {
      "bufferView": 0,
      "byteOffset": 134352,
      "componentType": 5125,
      "count": 22212,
      "max": [5824],
      "min": [0],
      "type": "SCALAR"
    },
    {
      "bufferView": 2,
      "byteOffset": 386304,
      "componentType": 5126,
      "count": 6131,
      "max": [2.7873070240020752, 2.9986710548400879, 2.007936954498291],
      "min": [-2.7788538932800293, -3.3156330585479736, -0.55061399936676025],
      "type": "VEC3"
    },
    {
      "bufferView": 2,
      "byteOffset": 459876,
      "componentType": 5126,
      "count": 6131,
      "max": [0.99983066320419312, 1, 1],
      "min": [-0.99989485740661621, -1, -1],
      "type": "VEC3"
    },
    {
      "bufferView": 1,
      "byteOffset": 128768,
      "componentType": 5126,
      "count": 6131,
      "max": [0.99680799245834351, 0.98185098171234131],
      "min": [0.011795000173151493, 0.0019499999471008778],
      "type": "VEC2"
    },
    {
      "bufferView": 0,
      "byteOffset": 223200,
      "componentType": 5125,
      "count": 21234,
      "max": [6130],
      "min": [0],
      "type": "SCALAR"
    },
    {
      "bufferView": 2,
      "byteOffset": 533448,
      "componentType": 5126,
      "count": 8596,
      "max": [2.8484740257263184, 4.6612157821655273, 2.1972770690917969],
      "min": [-2.8484740257263184, -3.3156330585479736, -0.74773997068405151],
      "type": "VEC3"
    },
    {
      "bufferView": 2,
      "byteOffset": 636600,
      "componentType": 5126,
      "count": 8596,
      "max": [0.99999856948852539, 0.99997043609619141, 0.99997556209564209],
      "min": [-0.99999856948852539, -1, -1],
      "type": "VEC3"
    },
    {
      "bufferView": 1,
      "byteOffset": 177816,
      "componentType": 5126,
      "count": 8596,
      "max": [0.99625802040100098, 0.99435597658157349],
      "min": [0.0019620000384747982, 0.0019499999471008778],
      "type": "VEC2"
    },
    {
      "bufferView": 0,
      "byteOffset": 308136,
      "componentType": 5125,
      "count": 40980,
      "max": [8595],
      "min": [0],
      "type": "SCALAR"
    }
  ],
  "asset": {
    "extras": {
      "author": "JCarvajal (https://sketchfab.com/JCarvajal)",
      "license": "CC-BY-4.0 (http://creativecommons.org/licenses/by/4.0/)",
      "source": "https://sketchfab.com/3d-models/spaceship-00c7005a1ae74487874a9f518cc25d24",
      "title": "Spaceship"
    },
    "generator": "Sketchfab-9.30.0",
    "version": "2.0"
  },
  "bufferViews": [
    {
      "buffer": 0,
      "byteLength": 472056,
      "byteOffset": 0,
      "name": "floatBufferViews",
      "target": 34963
    },
    {
      "buffer": 0,
      "byteLength": 246584,
      "byteOffset": 472056,
      "byteStride": 8,
      "name": "floatBufferViews",
      "target": 34962
    },
    {
      "buffer": 0,
      "byteLength": 739752,
      "byteOffset": 718640,
      "byteStride": 12,
      "name": "floatBufferViews",
      "target": 34962
    }
  ],
  "buffers": [
    {
      "byteLength": 1458392,
      "uri": "scene.bin"
    }
  ],
  "images": [
    {
      "uri": "textures/Engine_baseColor.png"
    },
    {
      "uri": "textures/Engine_metallicRoughness.png"
    },
    {
      "uri": "textures/Engine_emissive.png"
    },
    {
      "uri": "textures/Ship_baseColor.png"
    },
    {
      "uri": "textures/Ship_metallicRoughness.png"
    },
    {
      "uri": "textures/Ship_emissive.png"
    }
  ],
  "materials": [
    {
      "doubleSided": true,
      "name": "null",
      "pbrMetallicRoughness": {
        "baseColorFactor": [1, 1, 1, 1],
        "metallicFactor": 0,
        "roughnessFactor": 0.59999999999999998
      }
    },
    {
      "alphaCutoff": 1,
      "alphaMode": "MASK",
      "doubleSided": true,
      "emissiveFactor": [
        0.077902218655187302,
        0.077902218655187302,
        0.077902218655187302
      ],
      "emissiveTexture": {
        "index": 2,
        "texCoord": 0
      },
      "name": "Engine",
      "occlusionTexture": {
        "index": 1,
        "strength": 1,
        "texCoord": 0
      },
      "pbrMetallicRoughness": {
        "baseColorFactor": [1, 1, 1, 1],
        "baseColorTexture": {
          "index": 0,
          "texCoord": 0
        },
        "metallicFactor": 1,
        "metallicRoughnessTexture": {
          "index": 1,
          "texCoord": 0
        },
        "roughnessFactor": 1
      }
    },
    {
      "doubleSided": true,
      "emissiveFactor": [
        0.19950568192182111,
        0.19950568192182111,
        0.19950568192182111
      ],
      "emissiveTexture": {
        "index": 5,
        "texCoord": 0
      },
      "name": "Ship",
      "occlusionTexture": {
        "index": 4,
        "strength": 1,
        "texCoord": 0
      },
      "pbrMetallicRoughness": {
        "baseColorFactor": [1, 1, 1, 1],
        "baseColorTexture": {
          "index": 3,
          "texCoord": 0
        },
        "metallicFactor": 1,
        "metallicRoughnessTexture": {
          "index": 4,
          "texCoord": 0
        },
        "roughnessFactor": 1
      }
    }
  ],
  "meshes": [
    {
      "primitives": [
        {
          "attributes": {
            "NORMAL": 1,
            "POSITION": 0,
            "TEXCOORD_0": 2
          },
          "indices": 3,
          "material": 0,
          "mode": 4
        }
      ]
    },
    {
      "primitives": [
        {
          "attributes": {
            "NORMAL": 5,
            "POSITION": 4,
            "TEXCOORD_0": 6
          },
          "indices": 7,
          "material": 1,
          "mode": 4
        }
      ]
    },
    {
      "primitives": [
        {
          "attributes": {
            "NORMAL": 9,
            "POSITION": 8,
            "TEXCOORD_0": 10
          },
          "indices": 11,
          "material": 1,
          "mode": 4
        }
      ]
    },
    {
      "primitives": [
        {
          "attributes": {
            "NORMAL": 13,
            "POSITION": 12,
            "TEXCOORD_0": 14
          },
          "indices": 15,
          "material": 2,
          "mode": 4
        }
      ]
    },
    {
      "primitives": [
        {
          "attributes": {
            "NORMAL": 17,
            "POSITION": 16,
            "TEXCOORD_0": 18
          },
          "indices": 19,
          "material": 2,
          "mode": 4
        }
      ]
    }
  ],
  "nodes": [
    {
      "children": [1],
      "name": "RootNode (gltf orientation matrix)",
      "rotation": [-0.70710678118654746, -0, -0, 0.70710678118654757]
    },
    {
      "children": [2],
      "matrix": [
        0.74712306261062622,
        0,
        0,
        0,
        0,
        0.74712306261062622,
        0,
        0,
        0,
        0,
        0.74712306261062622,
        0,
        0,
        0,
        0,
        1
      ],
      "name": "RootNode (model correction matrix)"
    },
    {
      "children": [3, 4, 5, 6, 7],
      "name": "Ship.obj.cleaner.materialmerger.gles"
    },
    {
      "mesh": 0,
      "name": ""
    },
    {
      "mesh": 1,
      "name": ""
    },
    {
      "mesh": 2,
      "name": ""
    },
    {
      "mesh": 3,
      "name": ""
    },
    {
      "mesh": 4,
      "name": ""
    }
  ],
  "samplers": [
    {
      "magFilter": 9729,
      "minFilter": 9987,
      "wrapS": 10497,
      "wrapT": 10497
    }
  ],
  "scene": 0,
  "scenes": [
    {
      "name": "OSG_Scene",
      "nodes": [0]
    }
  ],
  "textures": [
    {
      "sampler": 0,
      "source": 0
    },
    {
      "sampler": 0,
      "source": 1
    },
    {
      "sampler": 0,
      "source": 2
    },
    {
      "sampler": 0,
      "source": 3
    },
    {
      "sampler": 0,
      "source": 4
    },
    {
      "sampler": 0,
      "source": 5
    }
  ]
}
